solid cubesat_1u_hybrid_chassis_flight28
  facet normal 0.000000e+00 0.000000e+00 -1.000000e+00
    outer loop
      vertex 0.0000 0.0000 0.0000
      vertex 0.0000 8.5000 0.0000
      vertex 8.5000 8.5000 0.0000
    endloop
  endfacet
  facet normal 0.000000e+00 0.000000e+00 -1.000000e+00
    outer loop
      vertex 0.0000 0.0000 0.0000
      vertex 8.5000 8.5000 0.0000
      vertex 8.5000 0.0000 0.0000
    endloop
  endfacet
  facet normal 0.000000e+00 0.000000e+00 1.000000e+00
    outer loop
      vertex 0.0000 0.0000 113.5000
      vertex 8.5000 0.0000 113.5000
      vertex 8.5000 8.5000 113.5000
    endloop
  endfacet
  facet normal 0.000000e+00 0.000000e+00 1.000000e+00
    outer loop
      vertex 0.0000 0.0000 113.5000
      vertex 8.5000 8.5000 113.5000
      vertex 0.0000 8.5000 113.5000
    endloop
  endfacet
  facet normal -1.000000e+00 0.000000e+00 0.000000e+00
    outer loop
      vertex 0.0000 0.0000 0.0000
      vertex 0.0000 0.0000 113.5000
      vertex 0.0000 8.5000 113.5000
    endloop
  endfacet
  facet normal -1.000000e+00 0.000000e+00 0.000000e+00
    outer loop
      vertex 0.0000 0.0000 0.0000
      vertex 0.0000 8.5000 113.5000
      vertex 0.0000 8.5000 0.0000
    endloop
  endfacet
  facet normal 1.000000e+00 0.000000e+00 0.000000e+00
    outer loop
      vertex 8.5000 0.0000 0.0000
      vertex 8.5000 8.5000 0.0000
      vertex 8.5000 8.5000 113.5000
    endloop
  endfacet
  facet normal 1.000000e+00 0.000000e+00 0.000000e+00
    outer loop
      vertex 8.5000 0.0000 0.0000
      vertex 8.5000 8.5000 113.5000
      vertex 8.5000 0.0000 113.5000
    endloop
  endfacet
  facet normal 0.000000e+00 -1.000000e+00 0.000000e+00
    outer loop
      vertex 0.0000 0.0000 0.0000
      vertex 8.5000 0.0000 0.0000
      vertex 8.5000 0.0000 113.5000
    endloop
  endfacet
  facet normal 0.000000e+00 -1.000000e+00 0.000000e+00
    outer loop
      vertex 0.0000 0.0000 0.0000
      vertex 8.5000 0.0000 113.5000
      vertex 0.0000 0.0000 113.5000
    endloop
  endfacet
  facet normal 0.000000e+00 1.000000e+00 0.000000e+00
    outer loop
      vertex 0.0000 8.5000 0.0000
      vertex 0.0000 8.5000 113.5000
      vertex 8.5000 8.5000 113.5000
    endloop
  endfacet
  facet normal 0.000000e+00 1.000000e+00 0.000000e+00
    outer loop
      vertex 0.0000 8.5000 0.0000
      vertex 8.5000 8.5000 113.5000
      vertex 8.5000 8.5000 0.0000
    endloop
  endfacet
  facet normal 0.000000e+00 0.000000e+00 -1.000000e+00
    outer loop
      vertex 91.5000 0.0000 0.0000
      vertex 91.5000 8.5000 0.0000
      vertex 100.0000 8.5000 0.0000
    endloop
  endfacet
  facet normal 0.000000e+00 0.000000e+00 -1.000000e+00
    outer loop
      vertex 91.5000 0.0000 0.0000
      vertex 100.0000 8.5000 0.0000
      vertex 100.0000 0.0000 0.0000
    endloop
  endfacet
  facet normal 0.000000e+00 0.000000e+00 1.000000e+00
    outer loop
      vertex 91.5000 0.0000 113.5000
      vertex 100.0000 0.0000 113.5000
      vertex 100.0000 8.5000 113.5000
    endloop
  endfacet
  facet normal 0.000000e+00 0.000000e+00 1.000000e+00
    outer loop
      vertex 91.5000 0.0000 113.5000
      vertex 100.0000 8.5000 113.5000
      vertex 91.5000 8.5000 113.5000
    endloop
  endfacet
  facet normal -1.000000e+00 0.000000e+00 0.000000e+00
    outer loop
      vertex 91.5000 0.0000 0.0000
      vertex 91.5000 0.0000 113.5000
      vertex 91.5000 8.5000 113.5000
    endloop
  endfacet
  facet normal -1.000000e+00 0.000000e+00 0.000000e+00
    outer loop
      vertex 91.5000 0.0000 0.0000
      vertex 91.5000 8.5000 113.5000
      vertex 91.5000 8.5000 0.0000
    endloop
  endfacet
  facet normal 1.000000e+00 0.000000e+00 0.000000e+00
    outer loop
      vertex 100.0000 0.0000 0.0000
      vertex 100.0000 8.5000 0.0000
      vertex 100.0000 8.5000 113.5000
    endloop
  endfacet
  facet normal 1.000000e+00 0.000000e+00 0.000000e+00
    outer loop
      vertex 100.0000 0.0000 0.0000
      vertex 100.0000 8.5000 113.5000
      vertex 100.0000 0.0000 113.5000
    endloop
  endfacet
  facet normal 0.000000e+00 -1.000000e+00 0.000000e+00
    outer loop
      vertex 91.5000 0.0000 0.0000
      vertex 100.0000 0.0000 0.0000
      vertex 100.0000 0.0000 113.5000
    endloop
  endfacet
  facet normal 0.000000e+00 -1.000000e+00 0.000000e+00
    outer loop
      vertex 91.5000 0.0000 0.0000
      vertex 100.0000 0.0000 113.5000
      vertex 91.5000 0.0000 113.5000
    endloop
  endfacet
  facet normal 0.000000e+00 1.000000e+00 0.000000e+00
    outer loop
      vertex 91.5000 8.5000 0.0000
      vertex 91.5000 8.5000 113.5000
      vertex 100.0000 8.5000 113.5000
    endloop
  endfacet
  facet normal 0.000000e+00 1.000000e+00 0.000000e+00
    outer loop
      vertex 91.5000 8.5000 0.0000
      vertex 100.0000 8.5000 113.5000
      vertex 100.0000 8.5000 0.0000
    endloop
  endfacet
  facet normal 0.000000e+00 0.000000e+00 -1.000000e+00
    outer loop
      vertex 91.5000 91.5000 0.0000
      vertex 91.5000 100.0000 0.0000
      vertex 100.0000 100.0000 0.0000
    endloop
  endfacet
  facet normal 0.000000e+00 0.000000e+00 -1.000000e+00
    outer loop
      vertex 91.5000 91.5000 0.0000
      vertex 100.0000 100.0000 0.0000
      vertex 100.0000 91.5000 0.0000
    endloop
  endfacet
  facet normal 0.000000e+00 0.000000e+00 1.000000e+00
    outer loop
      vertex 91.5000 91.5000 113.5000
      vertex 100.0000 91.5000 113.5000
      vertex 100.0000 100.0000 113.5000
    endloop
  endfacet
  facet normal 0.000000e+00 0.000000e+00 1.000000e+00
    outer loop
      vertex 91.5000 91.5000 113.5000
      vertex 100.0000 100.0000 113.5000
      vertex 91.5000 100.0000 113.5000
    endloop
  endfacet
  facet normal -1.000000e+00 0.000000e+00 0.000000e+00
    outer loop
      vertex 91.5000 91.5000 0.0000
      vertex 91.5000 91.5000 113.5000
      vertex 91.5000 100.0000 113.5000
    endloop
  endfacet
  facet normal -1.000000e+00 0.000000e+00 0.000000e+00
    outer loop
      vertex 91.5000 91.5000 0.0000
      vertex 91.5000 100.0000 113.5000
      vertex 91.5000 100.0000 0.0000
    endloop
  endfacet
  facet normal 1.000000e+00 0.000000e+00 0.000000e+00
    outer loop
      vertex 100.0000 91.5000 0.0000
      vertex 100.0000 100.0000 0.0000
      vertex 100.0000 100.0000 113.5000
    endloop
  endfacet
  facet normal 1.000000e+00 0.000000e+00 0.000000e+00
    outer loop
      vertex 100.0000 91.5000 0.0000
      vertex 100.0000 100.0000 113.5000
      vertex 100.0000 91.5000 113.5000
    endloop
  endfacet
  facet normal 0.000000e+00 -1.000000e+00 0.000000e+00
    outer loop
      vertex 91.5000 91.5000 0.0000
      vertex 100.0000 91.5000 0.0000
      vertex 100.0000 91.5000 113.5000
    endloop
  endfacet
  facet normal 0.000000e+00 -1.000000e+00 0.000000e+00
    outer loop
      vertex 91.5000 91.5000 0.0000
      vertex 100.0000 91.5000 113.5000
      vertex 91.5000 91.5000 113.5000
    endloop
  endfacet
  facet normal 0.000000e+00 1.000000e+00 0.000000e+00
    outer loop
      vertex 91.5000 100.0000 0.0000
      vertex 91.5000 100.0000 113.5000
      vertex 100.0000 100.0000 113.5000
    endloop
  endfacet
  facet normal 0.000000e+00 1.000000e+00 0.000000e+00
    outer loop
      vertex 91.5000 100.0000 0.0000
      vertex 100.0000 100.0000 113.5000
      vertex 100.0000 100.0000 0.0000
    endloop
  endfacet
  facet normal 0.000000e+00 0.000000e+00 -1.000000e+00
    outer loop
      vertex 0.0000 91.5000 0.0000
      vertex 0.0000 100.0000 0.0000
      vertex 8.5000 100.0000 0.0000
    endloop
  endfacet
  facet normal 0.000000e+00 0.000000e+00 -1.000000e+00
    outer loop
      vertex 0.0000 91.5000 0.0000
      vertex 8.5000 100.0000 0.0000
      vertex 8.5000 91.5000 0.0000
    endloop
  endfacet
  facet normal 0.000000e+00 0.000000e+00 1.000000e+00
    outer loop
      vertex 0.0000 91.5000 113.5000
      vertex 8.5000 91.5000 113.5000
      vertex 8.5000 100.0000 113.5000
    endloop
  endfacet
  facet normal 0.000000e+00 0.000000e+00 1.000000e+00
    outer loop
      vertex 0.0000 91.5000 113.5000
      vertex 8.5000 100.0000 113.5000
      vertex 0.0000 100.0000 113.5000
    endloop
  endfacet
  facet normal -1.000000e+00 0.000000e+00 0.000000e+00
    outer loop
      vertex 0.0000 91.5000 0.0000
      vertex 0.0000 91.5000 113.5000
      vertex 0.0000 100.0000 113.5000
    endloop
  endfacet
  facet normal -1.000000e+00 0.000000e+00 0.000000e+00
    outer loop
      vertex 0.0000 91.5000 0.0000
      vertex 0.0000 100.0000 113.5000
      vertex 0.0000 100.0000 0.0000
    endloop
  endfacet
  facet normal 1.000000e+00 0.000000e+00 0.000000e+00
    outer loop
      vertex 8.5000 91.5000 0.0000
      vertex 8.5000 100.0000 0.0000
      vertex 8.5000 100.0000 113.5000
    endloop
  endfacet
  facet normal 1.000000e+00 0.000000e+00 0.000000e+00
    outer loop
      vertex 8.5000 91.5000 0.0000
      vertex 8.5000 100.0000 113.5000
      vertex 8.5000 91.5000 113.5000
    endloop
  endfacet
  facet normal 0.000000e+00 -1.000000e+00 0.000000e+00
    outer loop
      vertex 0.0000 91.5000 0.0000
      vertex 8.5000 91.5000 0.0000
      vertex 8.5000 91.5000 113.5000
    endloop
  endfacet
  facet normal 0.000000e+00 -1.000000e+00 0.000000e+00
    outer loop
      vertex 0.0000 91.5000 0.0000
      vertex 8.5000 91.5000 113.5000
      vertex 0.0000 91.5000 113.5000
    endloop
  endfacet
  facet normal 0.000000e+00 1.000000e+00 0.000000e+00
    outer loop
      vertex 0.0000 100.0000 0.0000
      vertex 0.0000 100.0000 113.5000
      vertex 8.5000 100.0000 113.5000
    endloop
  endfacet
  facet normal 0.000000e+00 1.000000e+00 0.000000e+00
    outer loop
      vertex 0.0000 100.0000 0.0000
      vertex 8.5000 100.0000 113.5000
      vertex 8.5000 100.0000 0.0000
    endloop
  endfacet
  facet normal 0.000000e+00 0.000000e+00 -1.000000e+00
    outer loop
      vertex 8.5000 0.0000 0.0000
      vertex 8.5000 8.5000 0.0000
      vertex 91.5000 8.5000 0.0000
    endloop
  endfacet
  facet normal 0.000000e+00 0.000000e+00 -1.000000e+00
    outer loop
      vertex 8.5000 0.0000 0.0000
      vertex 91.5000 8.5000 0.0000
      vertex 91.5000 0.0000 0.0000
    endloop
  endfacet
  facet normal 0.000000e+00 0.000000e+00 1.000000e+00
    outer loop
      vertex 8.5000 0.0000 3.0000
      vertex 91.5000 0.0000 3.0000
      vertex 91.5000 8.5000 3.0000
    endloop
  endfacet
  facet normal 0.000000e+00 0.000000e+00 1.000000e+00
    outer loop
      vertex 8.5000 0.0000 3.0000
      vertex 91.5000 8.5000 3.0000
      vertex 8.5000 8.5000 3.0000
    endloop
  endfacet
  facet normal -1.000000e+00 0.000000e+00 0.000000e+00
    outer loop
      vertex 8.5000 0.0000 0.0000
      vertex 8.5000 0.0000 3.0000
      vertex 8.5000 8.5000 3.0000
    endloop
  endfacet
  facet normal -1.000000e+00 0.000000e+00 0.000000e+00
    outer loop
      vertex 8.5000 0.0000 0.0000
      vertex 8.5000 8.5000 3.0000
      vertex 8.5000 8.5000 0.0000
    endloop
  endfacet
  facet normal 1.000000e+00 0.000000e+00 0.000000e+00
    outer loop
      vertex 91.5000 0.0000 0.0000
      vertex 91.5000 8.5000 0.0000
      vertex 91.5000 8.5000 3.0000
    endloop
  endfacet
  facet normal 1.000000e+00 0.000000e+00 0.000000e+00
    outer loop
      vertex 91.5000 0.0000 0.0000
      vertex 91.5000 8.5000 3.0000
      vertex 91.5000 0.0000 3.0000
    endloop
  endfacet
  facet normal 0.000000e+00 -1.000000e+00 0.000000e+00
    outer loop
      vertex 8.5000 0.0000 0.0000
      vertex 91.5000 0.0000 0.0000
      vertex 91.5000 0.0000 3.0000
    endloop
  endfacet
  facet normal 0.000000e+00 -1.000000e+00 0.000000e+00
    outer loop
      vertex 8.5000 0.0000 0.0000
      vertex 91.5000 0.0000 3.0000
      vertex 8.5000 0.0000 3.0000
    endloop
  endfacet
  facet normal 0.000000e+00 1.000000e+00 0.000000e+00
    outer loop
      vertex 8.5000 8.5000 0.0000
      vertex 8.5000 8.5000 3.0000
      vertex 91.5000 8.5000 3.0000
    endloop
  endfacet
  facet normal 0.000000e+00 1.000000e+00 0.000000e+00
    outer loop
      vertex 8.5000 8.5000 0.0000
      vertex 91.5000 8.5000 3.0000
      vertex 91.5000 8.5000 0.0000
    endloop
  endfacet
  facet normal 0.000000e+00 0.000000e+00 -1.000000e+00
    outer loop
      vertex 8.5000 91.5000 0.0000
      vertex 8.5000 100.0000 0.0000
      vertex 91.5000 100.0000 0.0000
    endloop
  endfacet
  facet normal 0.000000e+00 0.000000e+00 -1.000000e+00
    outer loop
      vertex 8.5000 91.5000 0.0000
      vertex 91.5000 100.0000 0.0000
      vertex 91.5000 91.5000 0.0000
    endloop
  endfacet
  facet normal 0.000000e+00 0.000000e+00 1.000000e+00
    outer loop
      vertex 8.5000 91.5000 3.0000
      vertex 91.5000 91.5000 3.0000
      vertex 91.5000 100.0000 3.0000
    endloop
  endfacet
  facet normal 0.000000e+00 0.000000e+00 1.000000e+00
    outer loop
      vertex 8.5000 91.5000 3.0000
      vertex 91.5000 100.0000 3.0000
      vertex 8.5000 100.0000 3.0000
    endloop
  endfacet
  facet normal -1.000000e+00 0.000000e+00 0.000000e+00
    outer loop
      vertex 8.5000 91.5000 0.0000
      vertex 8.5000 91.5000 3.0000
      vertex 8.5000 100.0000 3.0000
    endloop
  endfacet
  facet normal -1.000000e+00 0.000000e+00 0.000000e+00
    outer loop
      vertex 8.5000 91.5000 0.0000
      vertex 8.5000 100.0000 3.0000
      vertex 8.5000 100.0000 0.0000
    endloop
  endfacet
  facet normal 1.000000e+00 0.000000e+00 0.000000e+00
    outer loop
      vertex 91.5000 91.5000 0.0000
      vertex 91.5000 100.0000 0.0000
      vertex 91.5000 100.0000 3.0000
    endloop
  endfacet
  facet normal 1.000000e+00 0.000000e+00 0.000000e+00
    outer loop
      vertex 91.5000 91.5000 0.0000
      vertex 91.5000 100.0000 3.0000
      vertex 91.5000 91.5000 3.0000
    endloop
  endfacet
  facet normal 0.000000e+00 -1.000000e+00 0.000000e+00
    outer loop
      vertex 8.5000 91.5000 0.0000
      vertex 91.5000 91.5000 0.0000
      vertex 91.5000 91.5000 3.0000
    endloop
  endfacet
  facet normal 0.000000e+00 -1.000000e+00 0.000000e+00
    outer loop
      vertex 8.5000 91.5000 0.0000
      vertex 91.5000 91.5000 3.0000
      vertex 8.5000 91.5000 3.0000
    endloop
  endfacet
  facet normal 0.000000e+00 1.000000e+00 0.000000e+00
    outer loop
      vertex 8.5000 100.0000 0.0000
      vertex 8.5000 100.0000 3.0000
      vertex 91.5000 100.0000 3.0000
    endloop
  endfacet
  facet normal 0.000000e+00 1.000000e+00 0.000000e+00
    outer loop
      vertex 8.5000 100.0000 0.0000
      vertex 91.5000 100.0000 3.0000
      vertex 91.5000 100.0000 0.0000
    endloop
  endfacet
  facet normal 0.000000e+00 0.000000e+00 -1.000000e+00
    outer loop
      vertex 0.0000 8.5000 0.0000
      vertex 0.0000 91.5000 0.0000
      vertex 8.5000 91.5000 0.0000
    endloop
  endfacet
  facet normal 0.000000e+00 0.000000e+00 -1.000000e+00
    outer loop
      vertex 0.0000 8.5000 0.0000
      vertex 8.5000 91.5000 0.0000
      vertex 8.5000 8.5000 0.0000
    endloop
  endfacet
  facet normal 0.000000e+00 0.000000e+00 1.000000e+00
    outer loop
      vertex 0.0000 8.5000 3.0000
      vertex 8.5000 8.5000 3.0000
      vertex 8.5000 91.5000 3.0000
    endloop
  endfacet
  facet normal 0.000000e+00 0.000000e+00 1.000000e+00
    outer loop
      vertex 0.0000 8.5000 3.0000
      vertex 8.5000 91.5000 3.0000
      vertex 0.0000 91.5000 3.0000
    endloop
  endfacet
  facet normal -1.000000e+00 0.000000e+00 0.000000e+00
    outer loop
      vertex 0.0000 8.5000 0.0000
      vertex 0.0000 8.5000 3.0000
      vertex 0.0000 91.5000 3.0000
    endloop
  endfacet
  facet normal -1.000000e+00 0.000000e+00 0.000000e+00
    outer loop
      vertex 0.0000 8.5000 0.0000
      vertex 0.0000 91.5000 3.0000
      vertex 0.0000 91.5000 0.0000
    endloop
  endfacet
  facet normal 1.000000e+00 0.000000e+00 0.000000e+00
    outer loop
      vertex 8.5000 8.5000 0.0000
      vertex 8.5000 91.5000 0.0000
      vertex 8.5000 91.5000 3.0000
    endloop
  endfacet
  facet normal 1.000000e+00 0.000000e+00 0.000000e+00
    outer loop
      vertex 8.5000 8.5000 0.0000
      vertex 8.5000 91.5000 3.0000
      vertex 8.5000 8.5000 3.0000
    endloop
  endfacet
  facet normal 0.000000e+00 -1.000000e+00 0.000000e+00
    outer loop
      vertex 0.0000 8.5000 0.0000
      vertex 8.5000 8.5000 0.0000
      vertex 8.5000 8.5000 3.0000
    endloop
  endfacet
  facet normal 0.000000e+00 -1.000000e+00 0.000000e+00
    outer loop
      vertex 0.0000 8.5000 0.0000
      vertex 8.5000 8.5000 3.0000
      vertex 0.0000 8.5000 3.0000
    endloop
  endfacet
  facet normal 0.000000e+00 1.000000e+00 0.000000e+00
    outer loop
      vertex 0.0000 91.5000 0.0000
      vertex 0.0000 91.5000 3.0000
      vertex 8.5000 91.5000 3.0000
    endloop
  endfacet
  facet normal 0.000000e+00 1.000000e+00 0.000000e+00
    outer loop
      vertex 0.0000 91.5000 0.0000
      vertex 8.5000 91.5000 3.0000
      vertex 8.5000 91.5000 0.0000
    endloop
  endfacet
  facet normal 0.000000e+00 0.000000e+00 -1.000000e+00
    outer loop
      vertex 91.5000 8.5000 0.0000
      vertex 91.5000 91.5000 0.0000
      vertex 100.0000 91.5000 0.0000
    endloop
  endfacet
  facet normal 0.000000e+00 0.000000e+00 -1.000000e+00
    outer loop
      vertex 91.5000 8.5000 0.0000
      vertex 100.0000 91.5000 0.0000
      vertex 100.0000 8.5000 0.0000
    endloop
  endfacet
  facet normal 0.000000e+00 0.000000e+00 1.000000e+00
    outer loop
      vertex 91.5000 8.5000 3.0000
      vertex 100.0000 8.5000 3.0000
      vertex 100.0000 91.5000 3.0000
    endloop
  endfacet
  facet normal 0.000000e+00 0.000000e+00 1.000000e+00
    outer loop
      vertex 91.5000 8.5000 3.0000
      vertex 100.0000 91.5000 3.0000
      vertex 91.5000 91.5000 3.0000
    endloop
  endfacet
  facet normal -1.000000e+00 0.000000e+00 0.000000e+00
    outer loop
      vertex 91.5000 8.5000 0.0000
      vertex 91.5000 8.5000 3.0000
      vertex 91.5000 91.5000 3.0000
    endloop
  endfacet
  facet normal -1.000000e+00 0.000000e+00 0.000000e+00
    outer loop
      vertex 91.5000 8.5000 0.0000
      vertex 91.5000 91.5000 3.0000
      vertex 91.5000 91.5000 0.0000
    endloop
  endfacet
  facet normal 1.000000e+00 0.000000e+00 0.000000e+00
    outer loop
      vertex 100.0000 8.5000 0.0000
      vertex 100.0000 91.5000 0.0000
      vertex 100.0000 91.5000 3.0000
    endloop
  endfacet
  facet normal 1.000000e+00 0.000000e+00 0.000000e+00
    outer loop
      vertex 100.0000 8.5000 0.0000
      vertex 100.0000 91.5000 3.0000
      vertex 100.0000 8.5000 3.0000
    endloop
  endfacet
  facet normal 0.000000e+00 -1.000000e+00 0.000000e+00
    outer loop
      vertex 91.5000 8.5000 0.0000
      vertex 100.0000 8.5000 0.0000
      vertex 100.0000 8.5000 3.0000
    endloop
  endfacet
  facet normal 0.000000e+00 -1.000000e+00 0.000000e+00
    outer loop
      vertex 91.5000 8.5000 0.0000
      vertex 100.0000 8.5000 3.0000
      vertex 91.5000 8.5000 3.0000
    endloop
  endfacet
  facet normal 0.000000e+00 1.000000e+00 0.000000e+00
    outer loop
      vertex 91.5000 91.5000 0.0000
      vertex 91.5000 91.5000 3.0000
      vertex 100.0000 91.5000 3.0000
    endloop
  endfacet
  facet normal 0.000000e+00 1.000000e+00 0.000000e+00
    outer loop
      vertex 91.5000 91.5000 0.0000
      vertex 100.0000 91.5000 3.0000
      vertex 100.0000 91.5000 0.0000
    endloop
  endfacet
  facet normal 0.000000e+00 0.000000e+00 -1.000000e+00
    outer loop
      vertex 8.5000 0.0000 110.5000
      vertex 8.5000 8.5000 110.5000
      vertex 91.5000 8.5000 110.5000
    endloop
  endfacet
  facet normal 0.000000e+00 0.000000e+00 -1.000000e+00
    outer loop
      vertex 8.5000 0.0000 110.5000
      vertex 91.5000 8.5000 110.5000
      vertex 91.5000 0.0000 110.5000
    endloop
  endfacet
  facet normal 0.000000e+00 0.000000e+00 1.000000e+00
    outer loop
      vertex 8.5000 0.0000 113.5000
      vertex 91.5000 0.0000 113.5000
      vertex 91.5000 8.5000 113.5000
    endloop
  endfacet
  facet normal 0.000000e+00 0.000000e+00 1.000000e+00
    outer loop
      vertex 8.5000 0.0000 113.5000
      vertex 91.5000 8.5000 113.5000
      vertex 8.5000 8.5000 113.5000
    endloop
  endfacet
  facet normal -1.000000e+00 0.000000e+00 0.000000e+00
    outer loop
      vertex 8.5000 0.0000 110.5000
      vertex 8.5000 0.0000 113.5000
      vertex 8.5000 8.5000 113.5000
    endloop
  endfacet
  facet normal -1.000000e+00 0.000000e+00 0.000000e+00
    outer loop
      vertex 8.5000 0.0000 110.5000
      vertex 8.5000 8.5000 113.5000
      vertex 8.5000 8.5000 110.5000
    endloop
  endfacet
  facet normal 1.000000e+00 0.000000e+00 0.000000e+00
    outer loop
      vertex 91.5000 0.0000 110.5000
      vertex 91.5000 8.5000 110.5000
      vertex 91.5000 8.5000 113.5000
    endloop
  endfacet
  facet normal 1.000000e+00 0.000000e+00 0.000000e+00
    outer loop
      vertex 91.5000 0.0000 110.5000
      vertex 91.5000 8.5000 113.5000
      vertex 91.5000 0.0000 113.5000
    endloop
  endfacet
  facet normal 0.000000e+00 -1.000000e+00 0.000000e+00
    outer loop
      vertex 8.5000 0.0000 110.5000
      vertex 91.5000 0.0000 110.5000
      vertex 91.5000 0.0000 113.5000
    endloop
  endfacet
  facet normal 0.000000e+00 -1.000000e+00 0.000000e+00
    outer loop
      vertex 8.5000 0.0000 110.5000
      vertex 91.5000 0.0000 113.5000
      vertex 8.5000 0.0000 113.5000
    endloop
  endfacet
  facet normal 0.000000e+00 1.000000e+00 0.000000e+00
    outer loop
      vertex 8.5000 8.5000 110.5000
      vertex 8.5000 8.5000 113.5000
      vertex 91.5000 8.5000 113.5000
    endloop
  endfacet
  facet normal 0.000000e+00 1.000000e+00 0.000000e+00
    outer loop
      vertex 8.5000 8.5000 110.5000
      vertex 91.5000 8.5000 113.5000
      vertex 91.5000 8.5000 110.5000
    endloop
  endfacet
  facet normal 0.000000e+00 0.000000e+00 -1.000000e+00
    outer loop
      vertex 8.5000 91.5000 110.5000
      vertex 8.5000 100.0000 110.5000
      vertex 91.5000 100.0000 110.5000
    endloop
  endfacet
  facet normal 0.000000e+00 0.000000e+00 -1.000000e+00
    outer loop
      vertex 8.5000 91.5000 110.5000
      vertex 91.5000 100.0000 110.5000
      vertex 91.5000 91.5000 110.5000
    endloop
  endfacet
  facet normal 0.000000e+00 0.000000e+00 1.000000e+00
    outer loop
      vertex 8.5000 91.5000 113.5000
      vertex 91.5000 91.5000 113.5000
      vertex 91.5000 100.0000 113.5000
    endloop
  endfacet
  facet normal 0.000000e+00 0.000000e+00 1.000000e+00
    outer loop
      vertex 8.5000 91.5000 113.5000
      vertex 91.5000 100.0000 113.5000
      vertex 8.5000 100.0000 113.5000
    endloop
  endfacet
  facet normal -1.000000e+00 0.000000e+00 0.000000e+00
    outer loop
      vertex 8.5000 91.5000 110.5000
      vertex 8.5000 91.5000 113.5000
      vertex 8.5000 100.0000 113.5000
    endloop
  endfacet
  facet normal -1.000000e+00 0.000000e+00 0.000000e+00
    outer loop
      vertex 8.5000 91.5000 110.5000
      vertex 8.5000 100.0000 113.5000
      vertex 8.5000 100.0000 110.5000
    endloop
  endfacet
  facet normal 1.000000e+00 0.000000e+00 0.000000e+00
    outer loop
      vertex 91.5000 91.5000 110.5000
      vertex 91.5000 100.0000 110.5000
      vertex 91.5000 100.0000 113.5000
    endloop
  endfacet
  facet normal 1.000000e+00 0.000000e+00 0.000000e+00
    outer loop
      vertex 91.5000 91.5000 110.5000
      vertex 91.5000 100.0000 113.5000
      vertex 91.5000 91.5000 113.5000
    endloop
  endfacet
  facet normal 0.000000e+00 -1.000000e+00 0.000000e+00
    outer loop
      vertex 8.5000 91.5000 110.5000
      vertex 91.5000 91.5000 110.5000
      vertex 91.5000 91.5000 113.5000
    endloop
  endfacet
  facet normal 0.000000e+00 -1.000000e+00 0.000000e+00
    outer loop
      vertex 8.5000 91.5000 110.5000
      vertex 91.5000 91.5000 113.5000
      vertex 8.5000 91.5000 113.5000
    endloop
  endfacet
  facet normal 0.000000e+00 1.000000e+00 0.000000e+00
    outer loop
      vertex 8.5000 100.0000 110.5000
      vertex 8.5000 100.0000 113.5000
      vertex 91.5000 100.0000 113.5000
    endloop
  endfacet
  facet normal 0.000000e+00 1.000000e+00 0.000000e+00
    outer loop
      vertex 8.5000 100.0000 110.5000
      vertex 91.5000 100.0000 113.5000
      vertex 91.5000 100.0000 110.5000
    endloop
  endfacet
  facet normal 0.000000e+00 0.000000e+00 -1.000000e+00
    outer loop
      vertex 0.0000 8.5000 110.5000
      vertex 0.0000 91.5000 110.5000
      vertex 8.5000 91.5000 110.5000
    endloop
  endfacet
  facet normal 0.000000e+00 0.000000e+00 -1.000000e+00
    outer loop
      vertex 0.0000 8.5000 110.5000
      vertex 8.5000 91.5000 110.5000
      vertex 8.5000 8.5000 110.5000
    endloop
  endfacet
  facet normal 0.000000e+00 0.000000e+00 1.000000e+00
    outer loop
      vertex 0.0000 8.5000 113.5000
      vertex 8.5000 8.5000 113.5000
      vertex 8.5000 91.5000 113.5000
    endloop
  endfacet
  facet normal 0.000000e+00 0.000000e+00 1.000000e+00
    outer loop
      vertex 0.0000 8.5000 113.5000
      vertex 8.5000 91.5000 113.5000
      vertex 0.0000 91.5000 113.5000
    endloop
  endfacet
  facet normal -1.000000e+00 0.000000e+00 0.000000e+00
    outer loop
      vertex 0.0000 8.5000 110.5000
      vertex 0.0000 8.5000 113.5000
      vertex 0.0000 91.5000 113.5000
    endloop
  endfacet
  facet normal -1.000000e+00 0.000000e+00 0.000000e+00
    outer loop
      vertex 0.0000 8.5000 110.5000
      vertex 0.0000 91.5000 113.5000
      vertex 0.0000 91.5000 110.5000
    endloop
  endfacet
  facet normal 1.000000e+00 0.000000e+00 0.000000e+00
    outer loop
      vertex 8.5000 8.5000 110.5000
      vertex 8.5000 91.5000 110.5000
      vertex 8.5000 91.5000 113.5000
    endloop
  endfacet
  facet normal 1.000000e+00 0.000000e+00 0.000000e+00
    outer loop
      vertex 8.5000 8.5000 110.5000
      vertex 8.5000 91.5000 113.5000
      vertex 8.5000 8.5000 113.5000
    endloop
  endfacet
  facet normal 0.000000e+00 -1.000000e+00 0.000000e+00
    outer loop
      vertex 0.0000 8.5000 110.5000
      vertex 8.5000 8.5000 110.5000
      vertex 8.5000 8.5000 113.5000
    endloop
  endfacet
  facet normal 0.000000e+00 -1.000000e+00 0.000000e+00
    outer loop
      vertex 0.0000 8.5000 110.5000
      vertex 8.5000 8.5000 113.5000
      vertex 0.0000 8.5000 113.5000
    endloop
  endfacet
  facet normal 0.000000e+00 1.000000e+00 0.000000e+00
    outer loop
      vertex 0.0000 91.5000 110.5000
      vertex 0.0000 91.5000 113.5000
      vertex 8.5000 91.5000 113.5000
    endloop
  endfacet
  facet normal 0.000000e+00 1.000000e+00 0.000000e+00
    outer loop
      vertex 0.0000 91.5000 110.5000
      vertex 8.5000 91.5000 113.5000
      vertex 8.5000 91.5000 110.5000
    endloop
  endfacet
  facet normal 0.000000e+00 0.000000e+00 -1.000000e+00
    outer loop
      vertex 91.5000 8.5000 110.5000
      vertex 91.5000 91.5000 110.5000
      vertex 100.0000 91.5000 110.5000
    endloop
  endfacet
  facet normal 0.000000e+00 0.000000e+00 -1.000000e+00
    outer loop
      vertex 91.5000 8.5000 110.5000
      vertex 100.0000 91.5000 110.5000
      vertex 100.0000 8.5000 110.5000
    endloop
  endfacet
  facet normal 0.000000e+00 0.000000e+00 1.000000e+00
    outer loop
      vertex 91.5000 8.5000 113.5000
      vertex 100.0000 8.5000 113.5000
      vertex 100.0000 91.5000 113.5000
    endloop
  endfacet
  facet normal 0.000000e+00 0.000000e+00 1.000000e+00
    outer loop
      vertex 91.5000 8.5000 113.5000
      vertex 100.0000 91.5000 113.5000
      vertex 91.5000 91.5000 113.5000
    endloop
  endfacet
  facet normal -1.000000e+00 0.000000e+00 0.000000e+00
    outer loop
      vertex 91.5000 8.5000 110.5000
      vertex 91.5000 8.5000 113.5000
      vertex 91.5000 91.5000 113.5000
    endloop
  endfacet
  facet normal -1.000000e+00 0.000000e+00 0.000000e+00
    outer loop
      vertex 91.5000 8.5000 110.5000
      vertex 91.5000 91.5000 113.5000
      vertex 91.5000 91.5000 110.5000
    endloop
  endfacet
  facet normal 1.000000e+00 0.000000e+00 0.000000e+00
    outer loop
      vertex 100.0000 8.5000 110.5000
      vertex 100.0000 91.5000 110.5000
      vertex 100.0000 91.5000 113.5000
    endloop
  endfacet
  facet normal 1.000000e+00 0.000000e+00 0.000000e+00
    outer loop
      vertex 100.0000 8.5000 110.5000
      vertex 100.0000 91.5000 113.5000
      vertex 100.0000 8.5000 113.5000
    endloop
  endfacet
  facet normal 0.000000e+00 -1.000000e+00 0.000000e+00
    outer loop
      vertex 91.5000 8.5000 110.5000
      vertex 100.0000 8.5000 110.5000
      vertex 100.0000 8.5000 113.5000
    endloop
  endfacet
  facet normal 0.000000e+00 -1.000000e+00 0.000000e+00
    outer loop
      vertex 91.5000 8.5000 110.5000
      vertex 100.0000 8.5000 113.5000
      vertex 91.5000 8.5000 113.5000
    endloop
  endfacet
  facet normal 0.000000e+00 1.000000e+00 0.000000e+00
    outer loop
      vertex 91.5000 91.5000 110.5000
      vertex 91.5000 91.5000 113.5000
      vertex 100.0000 91.5000 113.5000
    endloop
  endfacet
  facet normal 0.000000e+00 1.000000e+00 0.000000e+00
    outer loop
      vertex 91.5000 91.5000 110.5000
      vertex 100.0000 91.5000 113.5000
      vertex 100.0000 91.5000 110.5000
    endloop
  endfacet
  facet normal 0.000000e+00 0.000000e+00 -1.000000e+00
    outer loop
      vertex 8.5000 0.0000 3.0000
      vertex 8.5000 1.5000 3.0000
      vertex 91.5000 1.5000 3.0000
    endloop
  endfacet
  facet normal 0.000000e+00 0.000000e+00 -1.000000e+00
    outer loop
      vertex 8.5000 0.0000 3.0000
      vertex 91.5000 1.5000 3.0000
      vertex 91.5000 0.0000 3.0000
    endloop
  endfacet
  facet normal 0.000000e+00 0.000000e+00 1.000000e+00
    outer loop
      vertex 8.5000 0.0000 7.0000
      vertex 91.5000 0.0000 7.0000
      vertex 91.5000 1.5000 7.0000
    endloop
  endfacet
  facet normal 0.000000e+00 0.000000e+00 1.000000e+00
    outer loop
      vertex 8.5000 0.0000 7.0000
      vertex 91.5000 1.5000 7.0000
      vertex 8.5000 1.5000 7.0000
    endloop
  endfacet
  facet normal -1.000000e+00 0.000000e+00 0.000000e+00
    outer loop
      vertex 8.5000 0.0000 3.0000
      vertex 8.5000 0.0000 7.0000
      vertex 8.5000 1.5000 7.0000
    endloop
  endfacet
  facet normal -1.000000e+00 0.000000e+00 0.000000e+00
    outer loop
      vertex 8.5000 0.0000 3.0000
      vertex 8.5000 1.5000 7.0000
      vertex 8.5000 1.5000 3.0000
    endloop
  endfacet
  facet normal 1.000000e+00 0.000000e+00 0.000000e+00
    outer loop
      vertex 91.5000 0.0000 3.0000
      vertex 91.5000 1.5000 3.0000
      vertex 91.5000 1.5000 7.0000
    endloop
  endfacet
  facet normal 1.000000e+00 0.000000e+00 0.000000e+00
    outer loop
      vertex 91.5000 0.0000 3.0000
      vertex 91.5000 1.5000 7.0000
      vertex 91.5000 0.0000 7.0000
    endloop
  endfacet
  facet normal 0.000000e+00 -1.000000e+00 0.000000e+00
    outer loop
      vertex 8.5000 0.0000 3.0000
      vertex 91.5000 0.0000 3.0000
      vertex 91.5000 0.0000 7.0000
    endloop
  endfacet
  facet normal 0.000000e+00 -1.000000e+00 0.000000e+00
    outer loop
      vertex 8.5000 0.0000 3.0000
      vertex 91.5000 0.0000 7.0000
      vertex 8.5000 0.0000 7.0000
    endloop
  endfacet
  facet normal 0.000000e+00 1.000000e+00 0.000000e+00
    outer loop
      vertex 8.5000 1.5000 3.0000
      vertex 8.5000 1.5000 7.0000
      vertex 91.5000 1.5000 7.0000
    endloop
  endfacet
  facet normal 0.000000e+00 1.000000e+00 0.000000e+00
    outer loop
      vertex 8.5000 1.5000 3.0000
      vertex 91.5000 1.5000 7.0000
      vertex 91.5000 1.5000 3.0000
    endloop
  endfacet
  facet normal 0.000000e+00 0.000000e+00 -1.000000e+00
    outer loop
      vertex 8.5000 0.0000 106.5000
      vertex 8.5000 1.5000 106.5000
      vertex 91.5000 1.5000 106.5000
    endloop
  endfacet
  facet normal 0.000000e+00 0.000000e+00 -1.000000e+00
    outer loop
      vertex 8.5000 0.0000 106.5000
      vertex 91.5000 1.5000 106.5000
      vertex 91.5000 0.0000 106.5000
    endloop
  endfacet
  facet normal 0.000000e+00 0.000000e+00 1.000000e+00
    outer loop
      vertex 8.5000 0.0000 110.5000
      vertex 91.5000 0.0000 110.5000
      vertex 91.5000 1.5000 110.5000
    endloop
  endfacet
  facet normal 0.000000e+00 0.000000e+00 1.000000e+00
    outer loop
      vertex 8.5000 0.0000 110.5000
      vertex 91.5000 1.5000 110.5000
      vertex 8.5000 1.5000 110.5000
    endloop
  endfacet
  facet normal -1.000000e+00 0.000000e+00 0.000000e+00
    outer loop
      vertex 8.5000 0.0000 106.5000
      vertex 8.5000 0.0000 110.5000
      vertex 8.5000 1.5000 110.5000
    endloop
  endfacet
  facet normal -1.000000e+00 0.000000e+00 0.000000e+00
    outer loop
      vertex 8.5000 0.0000 106.5000
      vertex 8.5000 1.5000 110.5000
      vertex 8.5000 1.5000 106.5000
    endloop
  endfacet
  facet normal 1.000000e+00 0.000000e+00 0.000000e+00
    outer loop
      vertex 91.5000 0.0000 106.5000
      vertex 91.5000 1.5000 106.5000
      vertex 91.5000 1.5000 110.5000
    endloop
  endfacet
  facet normal 1.000000e+00 0.000000e+00 0.000000e+00
    outer loop
      vertex 91.5000 0.0000 106.5000
      vertex 91.5000 1.5000 110.5000
      vertex 91.5000 0.0000 110.5000
    endloop
  endfacet
  facet normal 0.000000e+00 -1.000000e+00 0.000000e+00
    outer loop
      vertex 8.5000 0.0000 106.5000
      vertex 91.5000 0.0000 106.5000
      vertex 91.5000 0.0000 110.5000
    endloop
  endfacet
  facet normal 0.000000e+00 -1.000000e+00 0.000000e+00
    outer loop
      vertex 8.5000 0.0000 106.5000
      vertex 91.5000 0.0000 110.5000
      vertex 8.5000 0.0000 110.5000
    endloop
  endfacet
  facet normal 0.000000e+00 1.000000e+00 0.000000e+00
    outer loop
      vertex 8.5000 1.5000 106.5000
      vertex 8.5000 1.5000 110.5000
      vertex 91.5000 1.5000 110.5000
    endloop
  endfacet
  facet normal 0.000000e+00 1.000000e+00 0.000000e+00
    outer loop
      vertex 8.5000 1.5000 106.5000
      vertex 91.5000 1.5000 110.5000
      vertex 91.5000 1.5000 106.5000
    endloop
  endfacet
  facet normal 0.000000e+00 0.000000e+00 -1.000000e+00
    outer loop
      vertex 8.5000 98.5000 3.0000
      vertex 8.5000 100.0000 3.0000
      vertex 91.5000 100.0000 3.0000
    endloop
  endfacet
  facet normal 0.000000e+00 0.000000e+00 -1.000000e+00
    outer loop
      vertex 8.5000 98.5000 3.0000
      vertex 91.5000 100.0000 3.0000
      vertex 91.5000 98.5000 3.0000
    endloop
  endfacet
  facet normal 0.000000e+00 0.000000e+00 1.000000e+00
    outer loop
      vertex 8.5000 98.5000 7.0000
      vertex 91.5000 98.5000 7.0000
      vertex 91.5000 100.0000 7.0000
    endloop
  endfacet
  facet normal 0.000000e+00 0.000000e+00 1.000000e+00
    outer loop
      vertex 8.5000 98.5000 7.0000
      vertex 91.5000 100.0000 7.0000
      vertex 8.5000 100.0000 7.0000
    endloop
  endfacet
  facet normal -1.000000e+00 0.000000e+00 0.000000e+00
    outer loop
      vertex 8.5000 98.5000 3.0000
      vertex 8.5000 98.5000 7.0000
      vertex 8.5000 100.0000 7.0000
    endloop
  endfacet
  facet normal -1.000000e+00 0.000000e+00 0.000000e+00
    outer loop
      vertex 8.5000 98.5000 3.0000
      vertex 8.5000 100.0000 7.0000
      vertex 8.5000 100.0000 3.0000
    endloop
  endfacet
  facet normal 1.000000e+00 0.000000e+00 0.000000e+00
    outer loop
      vertex 91.5000 98.5000 3.0000
      vertex 91.5000 100.0000 3.0000
      vertex 91.5000 100.0000 7.0000
    endloop
  endfacet
  facet normal 1.000000e+00 0.000000e+00 0.000000e+00
    outer loop
      vertex 91.5000 98.5000 3.0000
      vertex 91.5000 100.0000 7.0000
      vertex 91.5000 98.5000 7.0000
    endloop
  endfacet
  facet normal 0.000000e+00 -1.000000e+00 0.000000e+00
    outer loop
      vertex 8.5000 98.5000 3.0000
      vertex 91.5000 98.5000 3.0000
      vertex 91.5000 98.5000 7.0000
    endloop
  endfacet
  facet normal 0.000000e+00 -1.000000e+00 0.000000e+00
    outer loop
      vertex 8.5000 98.5000 3.0000
      vertex 91.5000 98.5000 7.0000
      vertex 8.5000 98.5000 7.0000
    endloop
  endfacet
  facet normal 0.000000e+00 1.000000e+00 0.000000e+00
    outer loop
      vertex 8.5000 100.0000 3.0000
      vertex 8.5000 100.0000 7.0000
      vertex 91.5000 100.0000 7.0000
    endloop
  endfacet
  facet normal 0.000000e+00 1.000000e+00 0.000000e+00
    outer loop
      vertex 8.5000 100.0000 3.0000
      vertex 91.5000 100.0000 7.0000
      vertex 91.5000 100.0000 3.0000
    endloop
  endfacet
  facet normal 0.000000e+00 0.000000e+00 -1.000000e+00
    outer loop
      vertex 8.5000 98.5000 106.5000
      vertex 8.5000 100.0000 106.5000
      vertex 91.5000 100.0000 106.5000
    endloop
  endfacet
  facet normal 0.000000e+00 0.000000e+00 -1.000000e+00
    outer loop
      vertex 8.5000 98.5000 106.5000
      vertex 91.5000 100.0000 106.5000
      vertex 91.5000 98.5000 106.5000
    endloop
  endfacet
  facet normal 0.000000e+00 0.000000e+00 1.000000e+00
    outer loop
      vertex 8.5000 98.5000 110.5000
      vertex 91.5000 98.5000 110.5000
      vertex 91.5000 100.0000 110.5000
    endloop
  endfacet
  facet normal 0.000000e+00 0.000000e+00 1.000000e+00
    outer loop
      vertex 8.5000 98.5000 110.5000
      vertex 91.5000 100.0000 110.5000
      vertex 8.5000 100.0000 110.5000
    endloop
  endfacet
  facet normal -1.000000e+00 0.000000e+00 0.000000e+00
    outer loop
      vertex 8.5000 98.5000 106.5000
      vertex 8.5000 98.5000 110.5000
      vertex 8.5000 100.0000 110.5000
    endloop
  endfacet
  facet normal -1.000000e+00 0.000000e+00 0.000000e+00
    outer loop
      vertex 8.5000 98.5000 106.5000
      vertex 8.5000 100.0000 110.5000
      vertex 8.5000 100.0000 106.5000
    endloop
  endfacet
  facet normal 1.000000e+00 0.000000e+00 0.000000e+00
    outer loop
      vertex 91.5000 98.5000 106.5000
      vertex 91.5000 100.0000 106.5000
      vertex 91.5000 100.0000 110.5000
    endloop
  endfacet
  facet normal 1.000000e+00 0.000000e+00 0.000000e+00
    outer loop
      vertex 91.5000 98.5000 106.5000
      vertex 91.5000 100.0000 110.5000
      vertex 91.5000 98.5000 110.5000
    endloop
  endfacet
  facet normal 0.000000e+00 -1.000000e+00 0.000000e+00
    outer loop
      vertex 8.5000 98.5000 106.5000
      vertex 91.5000 98.5000 106.5000
      vertex 91.5000 98.5000 110.5000
    endloop
  endfacet
  facet normal 0.000000e+00 -1.000000e+00 0.000000e+00
    outer loop
      vertex 8.5000 98.5000 106.5000
      vertex 91.5000 98.5000 110.5000
      vertex 8.5000 98.5000 110.5000
    endloop
  endfacet
  facet normal 0.000000e+00 1.000000e+00 0.000000e+00
    outer loop
      vertex 8.5000 100.0000 106.5000
      vertex 8.5000 100.0000 110.5000
      vertex 91.5000 100.0000 110.5000
    endloop
  endfacet
  facet normal 0.000000e+00 1.000000e+00 0.000000e+00
    outer loop
      vertex 8.5000 100.0000 106.5000
      vertex 91.5000 100.0000 110.5000
      vertex 91.5000 100.0000 106.5000
    endloop
  endfacet
  facet normal 0.000000e+00 0.000000e+00 -1.000000e+00
    outer loop
      vertex 0.0000 8.5000 3.0000
      vertex 0.0000 91.5000 3.0000
      vertex 1.5000 91.5000 3.0000
    endloop
  endfacet
  facet normal 0.000000e+00 0.000000e+00 -1.000000e+00
    outer loop
      vertex 0.0000 8.5000 3.0000
      vertex 1.5000 91.5000 3.0000
      vertex 1.5000 8.5000 3.0000
    endloop
  endfacet
  facet normal 0.000000e+00 0.000000e+00 1.000000e+00
    outer loop
      vertex 0.0000 8.5000 7.0000
      vertex 1.5000 8.5000 7.0000
      vertex 1.5000 91.5000 7.0000
    endloop
  endfacet
  facet normal 0.000000e+00 0.000000e+00 1.000000e+00
    outer loop
      vertex 0.0000 8.5000 7.0000
      vertex 1.5000 91.5000 7.0000
      vertex 0.0000 91.5000 7.0000
    endloop
  endfacet
  facet normal -1.000000e+00 0.000000e+00 0.000000e+00
    outer loop
      vertex 0.0000 8.5000 3.0000
      vertex 0.0000 8.5000 7.0000
      vertex 0.0000 91.5000 7.0000
    endloop
  endfacet
  facet normal -1.000000e+00 0.000000e+00 0.000000e+00
    outer loop
      vertex 0.0000 8.5000 3.0000
      vertex 0.0000 91.5000 7.0000
      vertex 0.0000 91.5000 3.0000
    endloop
  endfacet
  facet normal 1.000000e+00 0.000000e+00 0.000000e+00
    outer loop
      vertex 1.5000 8.5000 3.0000
      vertex 1.5000 91.5000 3.0000
      vertex 1.5000 91.5000 7.0000
    endloop
  endfacet
  facet normal 1.000000e+00 0.000000e+00 0.000000e+00
    outer loop
      vertex 1.5000 8.5000 3.0000
      vertex 1.5000 91.5000 7.0000
      vertex 1.5000 8.5000 7.0000
    endloop
  endfacet
  facet normal 0.000000e+00 -1.000000e+00 0.000000e+00
    outer loop
      vertex 0.0000 8.5000 3.0000
      vertex 1.5000 8.5000 3.0000
      vertex 1.5000 8.5000 7.0000
    endloop
  endfacet
  facet normal 0.000000e+00 -1.000000e+00 0.000000e+00
    outer loop
      vertex 0.0000 8.5000 3.0000
      vertex 1.5000 8.5000 7.0000
      vertex 0.0000 8.5000 7.0000
    endloop
  endfacet
  facet normal 0.000000e+00 1.000000e+00 0.000000e+00
    outer loop
      vertex 0.0000 91.5000 3.0000
      vertex 0.0000 91.5000 7.0000
      vertex 1.5000 91.5000 7.0000
    endloop
  endfacet
  facet normal 0.000000e+00 1.000000e+00 0.000000e+00
    outer loop
      vertex 0.0000 91.5000 3.0000
      vertex 1.5000 91.5000 7.0000
      vertex 1.5000 91.5000 3.0000
    endloop
  endfacet
  facet normal 0.000000e+00 0.000000e+00 -1.000000e+00
    outer loop
      vertex 0.0000 8.5000 106.5000
      vertex 0.0000 91.5000 106.5000
      vertex 1.5000 91.5000 106.5000
    endloop
  endfacet
  facet normal 0.000000e+00 0.000000e+00 -1.000000e+00
    outer loop
      vertex 0.0000 8.5000 106.5000
      vertex 1.5000 91.5000 106.5000
      vertex 1.5000 8.5000 106.5000
    endloop
  endfacet
  facet normal 0.000000e+00 0.000000e+00 1.000000e+00
    outer loop
      vertex 0.0000 8.5000 110.5000
      vertex 1.5000 8.5000 110.5000
      vertex 1.5000 91.5000 110.5000
    endloop
  endfacet
  facet normal 0.000000e+00 0.000000e+00 1.000000e+00
    outer loop
      vertex 0.0000 8.5000 110.5000
      vertex 1.5000 91.5000 110.5000
      vertex 0.0000 91.5000 110.5000
    endloop
  endfacet
  facet normal -1.000000e+00 0.000000e+00 0.000000e+00
    outer loop
      vertex 0.0000 8.5000 106.5000
      vertex 0.0000 8.5000 110.5000
      vertex 0.0000 91.5000 110.5000
    endloop
  endfacet
  facet normal -1.000000e+00 0.000000e+00 0.000000e+00
    outer loop
      vertex 0.0000 8.5000 106.5000
      vertex 0.0000 91.5000 110.5000
      vertex 0.0000 91.5000 106.5000
    endloop
  endfacet
  facet normal 1.000000e+00 0.000000e+00 0.000000e+00
    outer loop
      vertex 1.5000 8.5000 106.5000
      vertex 1.5000 91.5000 106.5000
      vertex 1.5000 91.5000 110.5000
    endloop
  endfacet
  facet normal 1.000000e+00 0.000000e+00 0.000000e+00
    outer loop
      vertex 1.5000 8.5000 106.5000
      vertex 1.5000 91.5000 110.5000
      vertex 1.5000 8.5000 110.5000
    endloop
  endfacet
  facet normal 0.000000e+00 -1.000000e+00 0.000000e+00
    outer loop
      vertex 0.0000 8.5000 106.5000
      vertex 1.5000 8.5000 106.5000
      vertex 1.5000 8.5000 110.5000
    endloop
  endfacet
  facet normal 0.000000e+00 -1.000000e+00 0.000000e+00
    outer loop
      vertex 0.0000 8.5000 106.5000
      vertex 1.5000 8.5000 110.5000
      vertex 0.0000 8.5000 110.5000
    endloop
  endfacet
  facet normal 0.000000e+00 1.000000e+00 0.000000e+00
    outer loop
      vertex 0.0000 91.5000 106.5000
      vertex 0.0000 91.5000 110.5000
      vertex 1.5000 91.5000 110.5000
    endloop
  endfacet
  facet normal 0.000000e+00 1.000000e+00 0.000000e+00
    outer loop
      vertex 0.0000 91.5000 106.5000
      vertex 1.5000 91.5000 110.5000
      vertex 1.5000 91.5000 106.5000
    endloop
  endfacet
  facet normal 0.000000e+00 0.000000e+00 -1.000000e+00
    outer loop
      vertex 98.5000 8.5000 3.0000
      vertex 98.5000 91.5000 3.0000
      vertex 100.0000 91.5000 3.0000
    endloop
  endfacet
  facet normal 0.000000e+00 0.000000e+00 -1.000000e+00
    outer loop
      vertex 98.5000 8.5000 3.0000
      vertex 100.0000 91.5000 3.0000
      vertex 100.0000 8.5000 3.0000
    endloop
  endfacet
  facet normal 0.000000e+00 0.000000e+00 1.000000e+00
    outer loop
      vertex 98.5000 8.5000 7.0000
      vertex 100.0000 8.5000 7.0000
      vertex 100.0000 91.5000 7.0000
    endloop
  endfacet
  facet normal 0.000000e+00 0.000000e+00 1.000000e+00
    outer loop
      vertex 98.5000 8.5000 7.0000
      vertex 100.0000 91.5000 7.0000
      vertex 98.5000 91.5000 7.0000
    endloop
  endfacet
  facet normal -1.000000e+00 0.000000e+00 0.000000e+00
    outer loop
      vertex 98.5000 8.5000 3.0000
      vertex 98.5000 8.5000 7.0000
      vertex 98.5000 91.5000 7.0000
    endloop
  endfacet
  facet normal -1.000000e+00 0.000000e+00 0.000000e+00
    outer loop
      vertex 98.5000 8.5000 3.0000
      vertex 98.5000 91.5000 7.0000
      vertex 98.5000 91.5000 3.0000
    endloop
  endfacet
  facet normal 1.000000e+00 0.000000e+00 0.000000e+00
    outer loop
      vertex 100.0000 8.5000 3.0000
      vertex 100.0000 91.5000 3.0000
      vertex 100.0000 91.5000 7.0000
    endloop
  endfacet
  facet normal 1.000000e+00 0.000000e+00 0.000000e+00
    outer loop
      vertex 100.0000 8.5000 3.0000
      vertex 100.0000 91.5000 7.0000
      vertex 100.0000 8.5000 7.0000
    endloop
  endfacet
  facet normal 0.000000e+00 -1.000000e+00 0.000000e+00
    outer loop
      vertex 98.5000 8.5000 3.0000
      vertex 100.0000 8.5000 3.0000
      vertex 100.0000 8.5000 7.0000
    endloop
  endfacet
  facet normal 0.000000e+00 -1.000000e+00 0.000000e+00
    outer loop
      vertex 98.5000 8.5000 3.0000
      vertex 100.0000 8.5000 7.0000
      vertex 98.5000 8.5000 7.0000
    endloop
  endfacet
  facet normal 0.000000e+00 1.000000e+00 0.000000e+00
    outer loop
      vertex 98.5000 91.5000 3.0000
      vertex 98.5000 91.5000 7.0000
      vertex 100.0000 91.5000 7.0000
    endloop
  endfacet
  facet normal 0.000000e+00 1.000000e+00 0.000000e+00
    outer loop
      vertex 98.5000 91.5000 3.0000
      vertex 100.0000 91.5000 7.0000
      vertex 100.0000 91.5000 3.0000
    endloop
  endfacet
  facet normal 0.000000e+00 0.000000e+00 -1.000000e+00
    outer loop
      vertex 98.5000 8.5000 106.5000
      vertex 98.5000 91.5000 106.5000
      vertex 100.0000 91.5000 106.5000
    endloop
  endfacet
  facet normal 0.000000e+00 0.000000e+00 -1.000000e+00
    outer loop
      vertex 98.5000 8.5000 106.5000
      vertex 100.0000 91.5000 106.5000
      vertex 100.0000 8.5000 106.5000
    endloop
  endfacet
  facet normal 0.000000e+00 0.000000e+00 1.000000e+00
    outer loop
      vertex 98.5000 8.5000 110.5000
      vertex 100.0000 8.5000 110.5000
      vertex 100.0000 91.5000 110.5000
    endloop
  endfacet
  facet normal 0.000000e+00 0.000000e+00 1.000000e+00
    outer loop
      vertex 98.5000 8.5000 110.5000
      vertex 100.0000 91.5000 110.5000
      vertex 98.5000 91.5000 110.5000
    endloop
  endfacet
  facet normal -1.000000e+00 0.000000e+00 0.000000e+00
    outer loop
      vertex 98.5000 8.5000 106.5000
      vertex 98.5000 8.5000 110.5000
      vertex 98.5000 91.5000 110.5000
    endloop
  endfacet
  facet normal -1.000000e+00 0.000000e+00 0.000000e+00
    outer loop
      vertex 98.5000 8.5000 106.5000
      vertex 98.5000 91.5000 110.5000
      vertex 98.5000 91.5000 106.5000
    endloop
  endfacet
  facet normal 1.000000e+00 0.000000e+00 0.000000e+00
    outer loop
      vertex 100.0000 8.5000 106.5000
      vertex 100.0000 91.5000 106.5000
      vertex 100.0000 91.5000 110.5000
    endloop
  endfacet
  facet normal 1.000000e+00 0.000000e+00 0.000000e+00
    outer loop
      vertex 100.0000 8.5000 106.5000
      vertex 100.0000 91.5000 110.5000
      vertex 100.0000 8.5000 110.5000
    endloop
  endfacet
  facet normal 0.000000e+00 -1.000000e+00 0.000000e+00
    outer loop
      vertex 98.5000 8.5000 106.5000
      vertex 100.0000 8.5000 106.5000
      vertex 100.0000 8.5000 110.5000
    endloop
  endfacet
  facet normal 0.000000e+00 -1.000000e+00 0.000000e+00
    outer loop
      vertex 98.5000 8.5000 106.5000
      vertex 100.0000 8.5000 110.5000
      vertex 98.5000 8.5000 110.5000
    endloop
  endfacet
  facet normal 0.000000e+00 1.000000e+00 0.000000e+00
    outer loop
      vertex 98.5000 91.5000 106.5000
      vertex 98.5000 91.5000 110.5000
      vertex 100.0000 91.5000 110.5000
    endloop
  endfacet
  facet normal 0.000000e+00 1.000000e+00 0.000000e+00
    outer loop
      vertex 98.5000 91.5000 106.5000
      vertex 100.0000 91.5000 110.5000
      vertex 100.0000 91.5000 106.5000
    endloop
  endfacet
endsolid cubesat_1u_hybrid_chassis_flight28
